# xmcd CD database file
#
# Track frame offsets:
#	150
#	27749
#	58661
#	89795
#	125758
#	154198
#	171506
#	206118
#	238162
#
# Disc length: 3444 seconds
#
# Revision: 0
# Processed by: cddbd v1.5.2PL0 Copyright (c) Steve Scherf et al.
# Submitted via: CDex 1.51
#
DISCID=8e0d7209
DTITLE=Jerry Bergonzi - Tenorist
DYEAR=2007
DGENRE=Jazz
TTITLE0=Gecko Plex
TTITLE1=Pannonica
TTITLE2=Simultaneous Looks
TTITLE3=Table Steaks
TTITLE4=La Mesha
TTITLE5=Czarology
TTITLE6=With Reference
TTITLE7=Creature Feature
TTITLE8=On Again Off Again
EXTD=YEAR: 2007
EXTT0=
EXTT1=
EXTT2=
EXTT3=
EXTT4=
EXTT5=
EXTT6=
EXTT7=
EXTT8=
PLAYORDER=
